<?xml version="1.0" standalone="no"?>
<!DOCTYPE svg PUBLIC "-//W3C//DTD SVG 20010904//EN"
 "http://www.w3.org/TR/2001/REC-SVG-20010904/DTD/svg10.dtd">
<svg version="1.0" xmlns="http://www.w3.org/2000/svg"
 width="4096.000000pt" height="4096.000000pt" viewBox="0 0 4096.000000 4096.000000"
 preserveAspectRatio="xMidYMid meet">
<metadata>
Created by potrace 1.16, written by Peter Selinger 2001-2019
</metadata>
<g transform="translate(0.000000,4096.000000) scale(0.100000,-0.100000)"
fill="#000000" stroke="none">
<path d="M0 20480 l0 -20480 20480 0 20480 0 0 20480 0 20480 -20480 0 -20480
0 0 -20480z m10120 6130 c47 -5 130 -13 185 -19 115 -13 275 -40 455 -77 112
-24 164 -36 360 -90 156 -42 490 -163 650 -235 507 -227 907 -484 1330 -850
294 -255 533 -509 761 -809 63 -84 319 -463 319 -473 0 -3 23 -45 51 -94 47
-80 178 -336 260 -506 37 -77 44 -84 65 -66 19 15 57 16 862 18 378 1 650 -3
660 -8 9 -5 23 -6 32 -1 9 5 51 4 95 0 44 -5 118 -11 165 -14 141 -8 363 -44
454 -73 61 -19 130 -81 162 -145 50 -99 72 -367 41 -508 -29 -132 -98 -218
-212 -264 -36 -14 -72 -26 -80 -26 -8 0 -38 -11 -67 -25 -28 -14 -64 -25 -78
-25 -15 0 -30 -3 -34 -7 -11 -12 -98 -32 -137 -33 -20 0 -39 -3 -43 -7 -14
-14 -190 -32 -198 -20 -4 8 -11 7 -20 -1 -8 -6 -54 -12 -104 -13 -49 -2 -94
-6 -99 -10 -6 -4 -91 -9 -190 -12 -99 -2 -184 -5 -190 -7 -5 -2 -18 0 -28 5
-10 4 -29 3 -41 -3 -17 -7 -27 -7 -35 1 -8 8 -17 7 -35 -3 -21 -11 -28 -11
-41 0 -13 11 -20 11 -40 0 -20 -11 -27 -11 -40 0 -13 11 -20 11 -40 0 -20 -11
-27 -11 -40 0 -13 11 -20 11 -40 0 -16 -9 -29 -10 -37 -3 -7 5 -71 10 -141 11
-129 2 -145 6 -160 42 -9 24 4 -172 14 -204 5 -16 9 -51 9 -77 0 -49 16 -99
32 -99 4 0 8 7 8 16 0 12 6 15 23 9 27 -8 29 -8 97 6 30 7 155 14 277 16 205
3 225 2 261 -16 29 -15 42 -17 56 -9 14 8 25 7 38 -1 14 -8 24 -9 39 0 16 8
27 8 45 -1 17 -10 27 -10 37 -2 10 9 44 9 133 0 65 -6 121 -15 124 -19 3 -4
58 -10 123 -13 135 -7 195 -15 203 -27 3 -5 25 -9 49 -9 24 0 47 -4 50 -10 3
-5 26 -10 51 -10 24 0 44 -4 44 -10 0 -5 10 -10 23 -10 13 0 42 -9 65 -20 22
-11 48 -20 56 -20 8 0 18 -5 21 -10 4 -6 15 -8 24 -5 10 3 24 -1 31 -10 8 -9
28 -22 46 -30 57 -24 122 -93 158 -169 48 -100 50 -112 49 -291 0 -165 -6
-222 -26 -265 -24 -53 -92 -150 -104 -150 -8 0 -16 -7 -20 -15 -7 -19 -107
-85 -128 -85 -7 0 -29 -13 -47 -30 -18 -16 -42 -30 -54 -30 -12 0 -24 -7 -28
-15 -3 -8 -14 -15 -24 -15 -11 0 -31 -9 -45 -20 -14 -11 -30 -20 -36 -20 -14
0 -99 -44 -122 -62 -9 -7 -19 -32 -22 -55 -7 -40 -6 -43 16 -43 13 0 32 -9 42
-20 10 -11 28 -20 41 -20 13 0 26 -4 29 -10 3 -5 17 -10 29 -10 15 0 26 -7 29
-20 3 -12 11 -18 19 -15 8 3 27 -6 43 -19 19 -16 33 -22 40 -16 7 6 16 2 25
-10 8 -11 22 -20 30 -20 9 0 20 -4 26 -9 5 -5 36 -24 69 -41 104 -56 205 -174
205 -239 0 -11 5 -23 10 -26 6 -3 10 -19 10 -36 0 -16 3 -29 8 -29 4 0 6 -27
6 -60 -1 -33 2 -62 6 -65 9 -6 2 -169 -9 -199 -4 -11 -9 -41 -10 -65 -1 -24
-6 -52 -11 -62 -6 -10 -10 -28 -10 -41 0 -31 -62 -156 -93 -189 -60 -62 -158
-97 -351 -124 -59 -8 -112 -17 -116 -20 -32 -20 -921 -35 -1305 -22 -219 7
-309 15 -356 31 -42 15 -54 10 -73 -25 -7 -13 -37 -69 -66 -124 -133 -253
-198 -364 -337 -579 -325 -498 -780 -991 -1253 -1357 -153 -118 -277 -208
-365 -264 -33 -21 -76 -48 -95 -60 -60 -39 -172 -105 -177 -105 -3 0 -17 -9
-33 -20 -80 -57 -519 -265 -752 -356 -109 -42 -365 -129 -423 -142 -22 -6 -92
-23 -155 -40 -361 -93 -645 -141 -956 -162 -87 -5 -174 -13 -193 -16 -70 -11
-542 -4 -726 11 -625 53 -1242 206 -1751 435 -27 12 -69 31 -94 42 -303 134
-659 340 -935 542 -106 77 -319 244 -360 282 -11 11 -52 46 -90 78 -107 91
-396 379 -493 491 -48 55 -90 102 -93 105 -12 10 -187 237 -239 310 -214 300
-341 511 -495 825 -300 611 -476 1249 -542 1960 -26 278 -24 746 5 1039 12
120 24 221 26 225 3 4 10 45 16 91 23 173 101 530 152 690 91 288 189 555 261
710 218 471 427 815 716 1180 160 201 413 480 436 480 6 0 32 -22 59 -49 l48
-49 -96 -102 c-219 -232 -506 -593 -622 -783 -16 -27 -41 -67 -56 -90 -15 -23
-39 -62 -53 -87 -13 -25 -39 -67 -55 -95 -29 -47 -224 -437 -262 -522 -213
-482 -351 -1017 -419 -1623 -19 -174 -22 -720 -5 -945 27 -344 83 -688 156
-955 11 -41 29 -106 40 -145 35 -129 110 -350 146 -432 8 -17 14 -34 14 -38 0
-5 30 -76 66 -159 84 -192 226 -471 300 -592 10 -18 34 -58 53 -90 66 -112
244 -370 344 -498 304 -389 727 -792 1153 -1098 136 -98 121 -88 254 -170 98
-61 148 -90 245 -145 83 -47 341 -176 419 -210 245 -106 547 -217 721 -264
546 -148 939 -201 1485 -201 300 0 451 9 690 41 412 55 634 106 1060 242 416
134 962 412 1360 692 665 469 1218 1074 1599 1747 42 74 88 160 103 190 14 30
42 89 62 130 20 41 36 82 36 90 0 14 -47 38 -107 55 -13 3 -23 11 -23 16 0 6
-4 7 -10 4 -5 -3 -10 -13 -10 -22 0 -8 -8 -27 -19 -41 -10 -15 -37 -63 -61
-107 -230 -429 -467 -772 -759 -1100 -349 -391 -681 -672 -1171 -987 -217
-140 -589 -324 -875 -434 -261 -100 -667 -215 -895 -253 -342 -57 -451 -69
-726 -81 -265 -12 -669 -1 -849 24 -55 8 -125 17 -155 21 -121 13 -424 75
-600 122 -52 14 -112 29 -134 34 -62 15 -272 88 -396 136 -445 176 -765 349
-1170 634 -311 218 -663 548 -973 910 -62 74 -261 338 -311 414 -22 33 -57 87
-79 120 -105 159 -303 531 -377 705 -17 41 -38 89 -46 105 -74 156 -206 576
-268 855 -127 569 -161 1233 -91 1785 27 209 94 568 125 670 5 17 21 73 36
125 200 729 599 1459 1110 2030 545 610 1102 1016 1856 1354 202 91 626 231
848 281 41 9 101 23 132 31 180 43 558 92 828 108 106 6 628 -4 720 -14z
m10025 -3194 c221 -7 327 -15 342 -28 7 -6 20 -7 30 -4 46 18 279 -42 428
-111 93 -42 253 -163 269 -203 3 -8 29 -42 56 -75 28 -33 59 -76 68 -95 9 -19
24 -44 34 -54 10 -11 18 -28 18 -38 0 -18 3 -26 33 -84 9 -17 23 -58 32 -90 8
-32 19 -60 24 -63 9 -7 19 -51 28 -121 3 -25 9 -49 14 -55 5 -5 9 -40 9 -77 0
-42 4 -68 11 -68 18 0 -3 -595 -22 -614 -5 -6 -9 -29 -9 -52 0 -25 -5 -44 -12
-47 -10 -3 -10 -8 -2 -16 7 -8 8 -30 2 -69 -16 -94 3 -473 23 -480 5 -2 9 -33
9 -68 0 -36 5 -74 10 -84 6 -12 7 -21 0 -25 -5 -3 -6 -15 0 -29 5 -13 10 -77
11 -142 2 -66 7 -125 12 -132 7 -8 6 -22 -2 -39 -7 -14 -14 -80 -16 -147 -5
-160 -14 -258 -24 -271 -5 -5 -11 -30 -14 -55 -11 -88 -19 -119 -33 -131 -8
-6 -14 -25 -14 -41 0 -17 -7 -44 -16 -61 -30 -57 -34 -67 -34 -79 0 -7 -9 -24
-20 -38 -11 -14 -20 -33 -20 -42 0 -10 -4 -18 -10 -18 -5 0 -10 -7 -10 -17 0
-43 -194 -258 -290 -321 -72 -47 -141 -82 -162 -82 -9 0 -19 -4 -22 -8 -13
-22 -270 -77 -401 -88 -38 -3 -101 -8 -140 -11 -136 -12 -1573 -7 -1700 6
-257 26 -413 60 -515 113 -77 40 -164 110 -205 166 -47 64 -115 199 -115 228
0 13 -4 24 -10 24 -5 0 -10 14 -10 32 0 29 -11 73 -31 123 -11 30 -19 80 -25
180 -4 50 -10 95 -15 101 -14 17 -21 379 -22 1089 0 385 4 702 10 745 5 41 7
109 4 150 -6 72 2 314 14 430 16 170 29 260 35 260 4 0 10 15 13 33 39 224 99
354 213 459 68 62 67 61 99 84 63 43 130 67 285 103 96 22 315 41 550 46 134
4 245 7 246 8 5 4 829 -1 989 -7z m10550 -1 c148 -4 443 -21 525 -31 350 -40
474 -75 538 -154 69 -85 99 -318 68 -526 -21 -138 -67 -213 -159 -261 -59 -30
-373 -100 -537 -120 -25 -3 -49 -9 -54 -14 -6 -5 -28 -9 -50 -9 -41 0 -85 -12
-146 -39 -19 -8 -43 -14 -52 -12 -11 1 -18 -4 -18 -13 0 -9 -6 -16 -12 -16 -7
0 -26 -11 -42 -25 -16 -14 -33 -25 -38 -25 -5 0 -13 -12 -18 -26 -7 -18 -15
-24 -26 -20 -8 3 -12 2 -9 -3 3 -6 -4 -26 -15 -46 -11 -19 -20 -41 -20 -48 0
-7 -11 -36 -24 -64 -16 -33 -27 -76 -31 -124 -3 -41 -8 -101 -11 -134 -5 -60
-16 -314 -34 -745 -5 -124 -14 -308 -20 -410 -10 -176 -13 -247 -24 -595 -8
-251 -22 -384 -58 -545 -24 -110 -43 -153 -90 -196 -77 -73 -152 -88 -400 -82
-156 4 -191 8 -239 26 -87 34 -147 111 -169 217 -45 216 -66 446 -75 815 -12
514 -15 598 -25 725 -5 72 -13 204 -16 295 -20 538 -33 682 -63 740 -11 21
-23 54 -26 74 -4 20 -10 36 -14 36 -3 0 -12 14 -20 32 -14 31 -84 108 -99 108
-5 0 -19 11 -32 25 -16 17 -39 27 -72 31 -27 4 -51 11 -54 15 -3 5 -16 9 -29
9 -13 0 -26 4 -29 8 -2 4 -33 9 -67 10 -35 2 -66 6 -69 11 -3 4 -32 11 -65 15
-66 8 -136 20 -205 35 -25 6 -69 15 -99 20 -154 29 -244 78 -299 164 -35 55
-41 74 -56 177 -20 135 -10 292 25 407 30 97 96 162 194 191 189 57 502 89
939 97 154 3 282 8 285 10 5 6 862 -2 1136 -10z m-6145 -10 c52 -4 106 -6 120
-6 14 0 32 -2 40 -5 8 -3 58 -7 110 -9 92 -3 124 -7 310 -39 240 -41 311 -124
345 -401 21 -175 -20 -377 -92 -460 -34 -39 -141 -94 -221 -115 -18 -4 -38
-13 -46 -19 -7 -6 -15 -9 -18 -6 -3 3 -26 -6 -52 -20 -26 -14 -58 -25 -71 -25
-13 0 -25 -6 -28 -12 -3 -10 -9 -8 -24 5 -18 16 -22 16 -33 2 -7 -8 -20 -15
-30 -15 -9 0 -20 -3 -24 -7 -4 -4 -40 -13 -79 -20 -55 -9 -73 -9 -79 0 -6 9
-12 9 -28 0 -11 -7 -28 -13 -39 -13 -11 0 -21 -5 -23 -11 -3 -8 -49 -11 -141
-11 -79 1 -137 -3 -137 -9 0 -5 -13 -9 -30 -9 -16 0 -30 -4 -30 -10 0 -5 -11
-10 -24 -10 -14 0 -28 -4 -31 -10 -3 -5 -39 -10 -80 -10 -41 0 -77 5 -80 10
-3 6 -13 10 -21 10 -20 0 -17 -30 4 -32 9 -1 -19 -4 -62 -7 -44 -3 -80 -10
-82 -16 -1 -5 24 -34 57 -62 54 -49 63 -53 109 -53 27 0 50 -4 50 -10 0 -13
57 -13 65 -1 3 6 17 4 33 -5 15 -7 46 -14 68 -14 25 0 47 -6 54 -15 7 -8 25
-15 41 -15 16 0 38 -6 49 -12 14 -9 22 -10 31 -1 7 7 21 8 42 2 18 -5 47 -9
64 -9 23 0 33 -5 33 -15 0 -12 9 -13 44 -9 27 4 46 2 50 -5 4 -6 18 -11 32
-11 13 0 32 -4 42 -9 9 -5 38 -15 65 -23 26 -7 47 -16 47 -20 0 -4 9 -8 20 -8
11 0 20 -4 20 -10 0 -5 11 -10 25 -10 33 0 125 -41 125 -56 0 -6 11 -11 25
-11 13 0 38 -12 55 -27 17 -14 38 -26 46 -26 8 0 14 -4 14 -10 0 -5 6 -10 14
-10 8 0 27 -13 43 -30 15 -16 32 -30 38 -30 15 0 126 -112 136 -137 5 -13 15
-23 23 -23 14 0 32 -36 28 -53 -1 -4 13 -22 31 -40 18 -18 40 -45 48 -62 8
-16 20 -36 26 -43 7 -7 16 -25 20 -40 3 -15 15 -40 25 -57 10 -16 18 -42 18
-57 0 -16 4 -28 8 -28 4 0 14 -28 21 -62 7 -35 16 -72 21 -83 15 -35 20 -84
10 -90 -6 -4 -4 -15 5 -28 10 -15 15 -46 15 -98 0 -46 4 -79 11 -81 14 -5 13
-318 -1 -332 -6 -6 -10 -29 -10 -53 0 -24 -7 -59 -15 -78 -8 -20 -13 -52 -11
-73 2 -20 -3 -62 -11 -94 -7 -31 -13 -60 -11 -65 1 -4 -10 -34 -25 -66 -15
-32 -27 -66 -27 -76 0 -32 -97 -214 -172 -323 -36 -52 -189 -208 -205 -208 -3
0 -16 -8 -27 -19 -69 -62 -335 -162 -430 -162 -11 0 -26 -4 -35 -9 -34 -17
-286 -25 -846 -25 -658 0 -877 7 -1120 36 -389 46 -471 93 -519 294 -59 252
-19 526 91 613 43 34 123 72 151 72 10 0 27 7 38 15 10 8 31 15 46 15 15 0 30
5 33 10 3 6 19 10 36 10 16 0 29 4 29 9 0 9 33 17 118 27 23 4 42 10 42 15 0
5 27 9 59 9 33 0 61 5 63 10 2 6 45 11 101 12 53 1 97 5 97 10 0 4 37 8 83 8
46 0 87 4 93 10 5 5 36 10 69 12 33 1 68 6 77 12 12 7 21 6 34 -5 13 -11 18
-11 21 -1 3 6 19 12 37 12 18 0 36 4 41 9 14 13 285 20 313 8 24 -11 44 -1 23
12 -22 14 7 25 61 22 38 -2 48 1 48 13 0 10 9 16 24 16 14 0 28 5 31 10 3 6
15 10 26 10 12 0 19 7 19 18 0 10 3 22 7 25 14 14 13 67 -1 67 -8 0 -39 13
-70 29 -34 18 -58 26 -62 19 -4 -5 -21 4 -41 24 -23 21 -37 29 -40 21 -3 -9
-27 -13 -69 -13 -52 0 -64 3 -64 16 0 12 -6 15 -22 10 -59 -17 -84 -18 -97 -2
-11 13 -17 14 -28 5 -10 -9 -20 -9 -39 1 -17 9 -28 10 -35 3 -6 -6 -26 -7 -52
-2 -23 4 -61 8 -84 9 -23 0 -45 5 -48 10 -3 6 -24 10 -46 10 -21 0 -48 6 -59
12 -14 9 -23 9 -30 2 -15 -15 -120 5 -120 23 0 10 -10 12 -39 7 -24 -4 -41 -2
-45 5 -4 6 -27 11 -52 11 -24 0 -44 4 -44 9 0 5 -16 12 -35 15 -19 3 -51 9
-70 12 -19 3 -40 12 -46 20 -6 8 -19 14 -29 14 -9 0 -29 9 -43 20 -14 11 -32
20 -40 20 -8 0 -26 9 -40 20 -14 11 -32 20 -41 20 -9 0 -19 7 -22 15 -4 8 -13
15 -22 15 -33 0 -199 157 -248 233 -16 26 -34 47 -40 47 -7 0 -15 16 -18 35
-4 19 -11 35 -16 35 -9 0 -41 64 -61 125 -8 22 -17 42 -20 45 -3 3 -9 24 -12
48 -3 23 -11 50 -18 58 -7 8 -14 30 -16 47 -1 18 -7 41 -13 52 -5 11 -12 54
-15 95 -6 70 -7 129 -13 450 -1 76 4 158 13 210 8 47 18 103 21 125 4 22 13
47 21 57 8 9 13 22 12 30 -3 17 10 76 24 103 24 47 27 56 27 71 0 9 9 27 20
41 11 14 20 34 20 44 0 19 33 82 60 114 10 11 29 40 43 65 27 46 109 136 183
200 38 33 158 110 171 110 3 0 30 11 59 25 131 62 301 90 619 101 83 3 154 6
159 8 17 4 905 -4 996 -9z m10120 1 c331 -5 525 -13 630 -27 41 -6 91 -12 110
-14 19 -3 62 -9 95 -14 33 -6 76 -12 95 -14 130 -17 231 -79 269 -166 32 -75
42 -141 46 -291 5 -214 -18 -302 -102 -391 -46 -48 -101 -72 -278 -120 -22 -6
-48 -15 -57 -20 -10 -5 -25 -9 -35 -9 -19 0 -85 -22 -93 -31 -3 -3 -50 -11
-104 -18 -55 -6 -105 -16 -112 -22 -8 -7 -13 -6 -16 3 -4 10 -8 10 -19 2 -13
-11 -38 -14 -214 -29 -38 -3 -83 -10 -100 -15 -16 -5 -109 -11 -205 -12 -97
-1 -181 -6 -188 -11 -8 -7 -21 -6 -37 3 -20 11 -27 11 -40 0 -13 -11 -20 -11
-40 0 -20 11 -27 11 -40 0 -13 -11 -20 -11 -40 0 -20 11 -27 11 -40 0 -13 -11
-20 -11 -40 0 -20 10 -27 11 -40 0 -8 -7 -22 -9 -32 -5 -10 5 -90 10 -177 12
-109 2 -162 7 -167 15 -6 9 -14 9 -33 0 -16 -7 -27 -8 -31 -2 -4 6 -19 9 -33
8 -15 -1 -34 2 -42 7 -7 5 -52 10 -99 12 -82 3 -151 17 -151 32 0 4 -28 8 -62
9 -34 2 -68 8 -75 13 -7 6 -25 12 -40 14 -16 1 -45 10 -67 19 -21 9 -45 16
-53 16 -23 0 -160 48 -211 74 -58 29 -107 89 -135 164 -19 51 -22 78 -22 257
0 169 3 208 19 255 23 67 67 140 98 160 66 42 102 56 183 70 189 32 270 42
425 52 190 11 779 25 925 20 50 -1 218 -4 375 -6z m-7569 -97 c54 -17 83 -33
112 -62 42 -42 87 -128 87 -167 0 -14 7 -38 15 -54 8 -15 15 -38 15 -50 0 -11
7 -53 16 -91 40 -177 49 -447 47 -1310 -3 -1219 -25 -1792 -79 -2090 -47 -259
-112 -332 -316 -355 -250 -29 -449 2 -530 84 -42 43 -116 215 -102 238 3 5 0
16 -6 24 -7 8 -19 56 -26 107 -8 50 -19 94 -24 95 -6 2 -10 23 -10 47 0 24 -4
47 -10 50 -5 3 -10 34 -10 69 0 34 -4 66 -9 71 -19 19 -41 1075 -29 1350 5 88
12 304 18 480 19 623 34 891 52 912 6 7 5 14 -2 18 -8 5 -7 12 3 23 8 10 17
51 21 95 8 91 38 237 66 323 58 174 177 227 496 219 103 -2 147 -8 205 -26z
m7309 -1387 c0 -5 21 -10 48 -11 86 -3 177 -9 177 -11 0 -1 43 -3 95 -5 55 -2
96 -8 98 -14 2 -6 31 -11 68 -11 35 0 64 -4 64 -10 0 -5 32 -8 76 -6 55 3 77
0 81 -10 2 -7 12 -12 21 -12 9 0 46 -5 82 -12 36 -6 74 -13 85 -14 11 -1 37
-10 59 -19 21 -9 49 -17 63 -17 13 0 34 -7 47 -15 12 -8 63 -26 112 -39 173
-45 246 -104 286 -233 19 -59 22 -92 22 -258 0 -175 -2 -195 -23 -252 -13 -35
-30 -68 -37 -74 -8 -6 -14 -17 -14 -24 0 -11 -112 -95 -126 -95 -15 0 -164
-64 -164 -70 0 -10 -40 -23 -62 -20 -10 1 -18 -5 -18 -12 0 -19 -46 -38 -60
-24 -8 8 -12 5 -16 -12 -5 -19 -13 -22 -51 -22 -36 0 -46 -4 -50 -20 -6 -23
-23 -26 -42 -7 -11 10 -13 8 -8 -10 4 -17 1 -23 -11 -23 -26 -1 -62 -36 -62
-59 0 -12 -6 -21 -15 -21 -9 0 -15 -9 -15 -25 0 -18 5 -25 18 -25 26 0 80 -28
91 -47 6 -11 17 -14 36 -11 26 5 115 -34 123 -54 2 -4 14 -8 26 -8 26 0 76
-21 76 -32 0 -5 9 -8 20 -8 11 0 20 -4 20 -10 0 -5 7 -10 15 -10 8 0 23 -4 33
-9 9 -6 51 -22 92 -38 131 -49 202 -124 238 -250 22 -77 24 -456 3 -553 -16
-75 -59 -165 -93 -197 -39 -37 -132 -73 -229 -89 -50 -8 -95 -16 -99 -19 -9
-6 -233 -32 -375 -44 -100 -9 -802 -16 -885 -10 -14 1 -79 2 -145 1 -66 -1
-136 1 -155 4 -19 2 -75 8 -125 13 -99 10 -245 40 -315 65 -25 9 -55 16 -66
16 -12 0 -24 7 -28 15 -3 8 -17 15 -30 15 -56 0 -260 129 -367 230 -40 39
-149 181 -149 195 0 7 -6 15 -13 18 -15 5 -92 157 -103 200 -3 16 -13 31 -20
34 -8 3 -14 17 -14 32 0 15 -4 31 -8 37 -5 5 -15 36 -22 69 -7 33 -23 103 -36
155 -20 84 -27 134 -38 285 -2 22 -6 48 -10 57 -8 19 -1 526 8 598 20 152 48
248 103 353 57 109 179 224 293 277 25 12 53 26 62 31 10 5 25 9 33 9 8 0 15
4 15 8 0 10 60 32 87 32 12 0 23 5 25 10 2 6 22 12 46 14 24 2 48 8 54 14 6 6
24 8 39 5 18 -3 29 -1 29 6 0 6 17 11 40 11 23 0 51 7 64 15 18 12 30 13 50 5
36 -13 42 -13 61 7 11 10 34 16 68 17 29 0 55 5 59 10 4 6 16 5 33 -4 19 -10
28 -11 37 -2 14 14 71 16 116 3 27 -8 34 -7 42 10 10 18 24 19 235 19 124 0
225 -4 225 -8z m-304 -3128 c64 -29 119 -81 152 -143 33 -63 32 -202 -2 -269
-25 -48 -66 -92 -121 -129 -38 -25 -146 -46 -195 -38 -74 13 -185 93 -210 153
l-10 22 -4323 0 -4324 0 -32 -37 c-18 -21 -65 -72 -104 -113 -40 -42 -94 -100
-121 -130 -27 -30 -84 -91 -125 -135 -42 -45 -152 -164 -246 -265 -93 -102
-204 -221 -245 -265 -86 -91 -303 -325 -370 -400 -25 -27 -77 -83 -115 -125
-39 -41 -96 -102 -126 -135 -288 -311 -350 -378 -403 -435 -34 -36 -88 -94
-120 -130 -33 -36 -92 -99 -130 -140 -39 -41 -93 -100 -120 -130 -27 -30 -81
-89 -120 -130 -39 -41 -96 -102 -126 -135 -91 -100 -291 -316 -360 -390 -36
-38 -93 -99 -125 -135 -33 -35 -87 -94 -121 -130 -33 -36 -87 -94 -120 -130
-32 -35 -71 -77 -86 -92 l-26 -28 -3585 0 -3585 0 -12 -32 c-36 -96 -84 -151
-164 -189 -147 -70 -324 -4 -395 145 -31 68 -30 190 4 262 56 119 193 186 325
160 97 -20 186 -94 219 -182 l19 -49 3564 -3 3565 -2 58 62 c32 35 91 97 129
138 39 41 98 104 130 140 33 36 92 99 130 140 39 41 95 102 125 135 30 33 84
92 120 130 36 39 88 95 116 125 27 30 102 111 166 180 126 136 337 363 519
560 63 69 145 156 181 195 36 38 87 95 115 125 27 30 81 88 119 130 39 41 98
104 130 140 33 35 92 98 130 140 82 87 300 323 365 394 38 42 124 135 205 220
11 12 42 46 69 76 27 30 81 89 120 130 39 41 118 127 176 190 58 63 112 122
120 130 8 8 38 40 65 70 l50 55 4330 5 4330 5 6 50 c10 97 79 197 159 231 19
9 42 20 50 24 8 5 45 9 82 9 52 1 80 -5 124 -25z m-4542 -1403 c16 -9 38 -28
48 -41 15 -21 108 -238 165 -385 8 -22 19 -49 24 -60 12 -28 136 -335 193
-477 25 -64 43 -123 40 -132 -9 -25 -189 -23 -205 2 -6 9 -84 201 -173 425
-90 225 -167 408 -172 408 -13 1 -16 -6 -100 -220 -42 -106 -72 -197 -67 -202
4 -4 46 -9 93 -11 l85 -3 27 -55 c15 -30 30 -68 33 -85 10 -56 1 -60 -176 -65
l-161 -5 -32 -80 c-55 -135 -42 -125 -156 -125 l-100 0 0 25 c0 24 360 936
401 1017 29 56 82 87 149 87 34 0 66 -7 84 -18z m-4554 -20 c14 -27 13 -134
-2 -154 -11 -14 -47 -16 -288 -19 -302 -3 -322 -7 -350 -63 -12 -24 -16 -82
-18 -285 -3 -276 4 -325 51 -353 16 -8 107 -13 309 -17 157 -3 290 -9 294 -13
14 -14 17 -143 4 -166 l-11 -22 -322 3 -322 3 -50 28 c-61 35 -90 70 -124 150
l-26 62 0 310 c0 302 1 312 24 369 36 90 100 152 181 177 14 4 163 8 332 8
294 1 308 0 318 -18z m1500 -8 c42 -22 60 -39 82 -79 39 -71 54 -185 40 -298
-18 -136 -52 -189 -151 -233 -49 -22 -52 -25 -38 -41 8 -9 52 -82 97 -162 45
-80 93 -162 107 -182 14 -20 23 -47 21 -60 -3 -22 -7 -23 -105 -26 l-101 -3
-127 223 c-70 123 -129 224 -130 226 -2 2 -220 4 -282 2 -10 0 -13 -55 -15
-222 l-3 -223 -90 0 -90 0 -3 316 c-2 256 0 318 11 328 9 7 117 12 337 13
l324 3 23 34 c42 61 25 172 -30 203 -16 10 -108 14 -342 18 l-320 5 -3 79 c-2
44 -1 85 2 93 4 10 74 13 369 13 l363 0 54 -27z m1711 0 c17 -43 6 -143 -16
-159 -15 -11 -95 -14 -408 -14 -248 0 -395 4 -408 10 -16 9 -19 22 -19 85 0
40 3 80 6 89 5 14 52 16 420 16 l414 0 11 -27z m3489 1 c13 -33 13 -105 0
-138 l-9 -26 -183 -2 -183 -3 -3 -444 c-1 -308 -6 -448 -13 -458 -18 -20 -175
-18 -183 3 -3 9 -6 213 -6 454 0 390 -2 439 -16 444 -9 3 -94 6 -189 6 -197 0
-185 -6 -185 95 0 105 -52 95 486 95 l474 0 10 -26z m1543 -4 c63 -32 100 -74
127 -147 51 -134 51 -622 0 -756 -27 -73 -69 -121 -129 -150 -44 -21 -57 -22
-336 -22 -277 0 -292 1 -335 22 -75 36 -119 94 -146 194 -15 53 -18 108 -18
329 -1 293 10 367 63 446 31 45 91 89 141 103 20 5 154 9 310 8 271 -2 276 -2
323 -27z m1657 3 c42 -22 60 -39 82 -79 39 -71 54 -185 40 -298 -18 -136 -52
-189 -151 -233 -49 -22 -52 -25 -38 -41 8 -9 52 -82 97 -162 45 -80 93 -162
107 -182 14 -20 23 -47 21 -60 -3 -22 -7 -23 -105 -26 l-101 -3 -127 223 c-70
123 -129 224 -130 226 -2 2 -220 4 -282 2 -10 0 -13 -55 -15 -222 l-3 -223
-90 0 -90 0 -3 314 c-1 212 1 318 8 325 7 7 127 13 338 16 l326 5 23 34 c42
61 25 172 -30 203 -16 10 -108 14 -342 18 l-320 5 -3 79 c-2 44 -1 85 2 93 4
10 74 13 369 13 l363 0 54 -27z m-18633 -33 c9 -18 13 -85 13 -227 l0 -203
250 0 250 0 0 214 c0 256 -4 246 105 246 54 0 78 -4 89 -16 14 -14 16 -77 16
-549 0 -472 -2 -535 -16 -549 -11 -12 -35 -16 -89 -16 -109 0 -105 -10 -105
246 l0 214 -252 0 -253 0 3 -202 c3 -257 5 -252 -102 -256 -127 -5 -116 -59
-116 561 0 484 1 532 17 549 14 16 29 18 97 16 74 -3 81 -5 93 -28z m2385 13
c14 -13 18 -31 18 -86 0 -108 3 -107 -212 -107 l-178 0 0 -441 c0 -284 -4
-447 -10 -460 -9 -16 -22 -19 -94 -19 -58 0 -87 4 -95 13 -7 10 -12 150 -13
458 l-3 444 -180 3 c-211 3 -205 0 -205 105 0 118 -50 107 487 107 420 0 468
-2 485 -17z m1038 -23 c22 -22 40 -46 40 -52 0 -25 245 -628 255 -628 6 0 39
73 74 163 35 89 72 180 82 201 11 22 19 43 19 48 0 5 8 27 19 51 10 23 33 79
51 125 47 119 66 132 201 132 115 0 137 -8 164 -60 13 -25 15 -106 15 -538 0
-382 -3 -511 -12 -520 -7 -7 -43 -12 -90 -12 -66 0 -79 3 -88 19 -6 13 -10
160 -10 410 0 249 -4 392 -10 396 -5 3 -10 5 -10 3 0 -26 -250 -624 -273 -653
-31 -39 -105 -60 -176 -49 -85 13 -102 39 -242 391 -68 172 -127 313 -131 313
-5 0 -8 -180 -8 -399 0 -354 -2 -401 -16 -416 -13 -12 -33 -15 -92 -13 -70 3
-78 5 -89 28 -20 38 -14 1003 6 1043 24 46 55 56 174 57 l107 0 40 -40z m1807
28 c4 -7 10 -193 13 -413 5 -363 7 -403 24 -437 13 -28 27 -40 55 -48 20 -5
144 -10 277 -10 173 0 243 -3 252 -12 15 -15 16 -152 2 -179 -10 -18 -24 -19
-283 -19 -288 0 -330 5 -403 51 -51 31 -92 98 -114 186 -18 71 -20 114 -20
466 0 249 4 395 10 408 9 16 22 19 95 19 56 0 86 -4 92 -12z m6703 -428 c15
-24 12 -156 -3 -169 -9 -7 -115 -12 -323 -13 l-309 -3 -3 -60 c-2 -42 3 -70
15 -95 31 -61 47 -64 345 -65 205 0 270 -3 280 -13 17 -17 23 -158 9 -195
l-11 -28 -317 3 -318 3 -55 30 c-64 35 -99 83 -126 169 -15 49 -19 92 -19 223
l0 162 29 30 c16 16 40 32 55 34 14 2 187 4 384 3 306 -1 359 -3 367 -16z"/>
<path d="M9180 26335 c-417 -45 -652 -94 -1045 -217 -71 -22 -168 -55 -215
-73 -47 -18 -96 -36 -109 -40 -57 -17 -336 -151 -505 -241 -265 -141 -338
-188 -604 -387 -765 -572 -1346 -1340 -1685 -2227 -44 -115 -103 -289 -117
-345 -5 -16 -20 -73 -34 -125 -56 -205 -102 -441 -138 -715 -20 -151 -23 -213
-22 -555 0 -243 4 -420 12 -480 6 -52 19 -147 27 -210 22 -181 70 -427 111
-580 54 -201 144 -474 190 -577 8 -17 14 -34 14 -38 0 -3 21 -54 46 -113 189
-435 493 -919 792 -1262 280 -320 720 -708 1047 -921 178 -116 182 -119 462
-266 314 -164 650 -291 1038 -392 205 -53 355 -80 650 -118 193 -25 239 -27
565 -27 327 0 372 2 570 27 421 53 649 104 1032 231 821 272 1560 768 2136
1434 302 350 522 678 690 1027 24 50 52 107 63 128 25 51 24 69 -5 87 -25 16
-176 183 -176 195 0 4 -15 28 -34 54 -18 25 -46 71 -61 101 -15 30 -33 67 -41
82 -24 44 -84 229 -97 298 -2 8 -6 22 -9 30 -9 21 -18 81 -29 180 -5 47 -14
119 -20 160 -17 119 -23 485 -8 550 7 30 14 71 15 90 4 67 17 145 24 155 5 6
13 30 19 55 14 55 27 82 63 137 15 23 28 45 28 50 0 11 142 152 168 166 122
68 165 87 184 81 17 -5 20 -3 15 10 -5 12 0 16 23 16 17 0 30 5 30 10 0 6 7
10 15 10 10 0 15 -10 15 -27 0 -47 19 -11 22 42 l3 50 43 3 c36 3 42 0 42 -17
0 -11 5 -23 10 -26 6 -3 10 -2 10 3 0 10 11 13 100 30 25 4 51 11 57 15 7 4
13 0 16 -10 7 -32 19 75 13 119 -3 24 -9 78 -12 121 -4 42 -11 80 -15 83 -5 3
-9 20 -9 38 0 36 -39 98 -40 64 0 -21 -46 -25 -53 -5 -3 9 -7 9 -20 -2 -15
-12 -17 -11 -17 4 0 13 -6 16 -26 11 -14 -4 -31 -2 -38 3 -7 6 -32 12 -55 15
-23 2 -44 6 -48 10 -3 3 -18 6 -33 6 -14 0 -30 4 -35 8 -10 9 -93 35 -150 48
-16 4 -34 10 -40 14 -5 4 -28 13 -50 20 -78 25 -144 87 -170 160 -9 25 -19 52
-22 60 -14 37 -18 95 -17 235 0 126 4 162 23 225 28 94 63 154 101 177 35 20
37 39 10 88 -25 44 -25 57 0 80 38 35 84 -4 113 -97 5 -15 9 -15 49 -1 24 9
73 16 110 17 70 1 78 7 59 44 -5 9 -13 28 -19 42 -103 253 -251 515 -486 855
-51 73 -208 270 -300 375 -289 331 -678 665 -1061 909 -276 176 -644 364 -890
453 -452 164 -849 259 -1245 298 -63 6 -153 15 -200 21 -159 17 -584 9 -820
-16z m891 -235 c23 -13 25 -55 3 -64 -28 -11 -110 -6 -129 7 -13 10 -16 21
-11 40 6 25 10 27 62 27 30 0 64 -5 75 -10z m397 -46 c27 -8 39 -48 21 -70
-24 -29 -149 4 -149 39 0 33 63 48 128 31z m426 -104 c41 -41 -11 -73 -85 -51
-46 14 -63 33 -54 62 7 20 12 21 63 16 37 -4 62 -13 76 -27z m369 -104 c29
-12 37 -21 37 -40 0 -38 -29 -49 -84 -30 -57 20 -80 48 -63 76 14 22 48 20
110 -6z m-1600 -82 c0 -39 -3 -76 -7 -82 -4 -8 -37 -12 -86 -12 -97 0 -427
-27 -495 -40 -27 -5 -97 -17 -155 -25 -104 -16 -328 -68 -445 -104 -345 -107
-441 -146 -760 -303 -454 -223 -895 -571 -1272 -1003 -572 -656 -920 -1438
-1030 -2320 -26 -201 -25 -737 0 -955 68 -581 251 -1155 513 -1608 30 -51 54
-96 54 -98 0 -8 169 -262 229 -344 213 -291 513 -601 831 -856 216 -173 478
-336 772 -479 281 -136 536 -228 863 -309 275 -68 647 -116 900 -116 906 0
1710 232 2430 703 205 133 495 367 630 506 21 23 44 41 50 41 6 0 36 -26 68
-58 l57 -58 -83 -80 c-199 -195 -450 -388 -734 -565 -80 -50 -250 -149 -256
-149 -2 0 -73 -33 -158 -74 -896 -429 -1899 -545 -2869 -330 -151 33 -180 41
-325 83 -163 47 -411 141 -570 216 -49 23 -121 57 -160 75 -70 34 -229 122
-295 164 -19 13 -69 45 -110 71 -504 322 -952 766 -1297 1285 -213 320 -397
697 -507 1040 -67 208 -75 234 -101 345 -14 61 -29 126 -35 145 -19 74 -60
352 -76 520 -22 237 -22 614 0 830 70 678 263 1266 608 1845 141 239 299 457
470 651 412 467 893 832 1443 1094 72 34 138 65 147 70 67 36 386 150 533 190
407 112 789 170 1104 166 l124 -1 0 -71z m1978 -74 c49 -26 58 -45 32 -72
l-20 -20 -51 22 c-61 26 -76 42 -67 70 8 27 53 27 106 0z m360 -186 c50 -28
62 -44 53 -69 -10 -26 -42 -26 -93 0 -51 25 -60 41 -45 79 9 22 29 20 85 -10z
m-4700 -65 c9 -17 7 -25 -11 -44 -11 -12 -39 -30 -60 -40 -32 -15 -42 -15 -55
-5 -28 23 -18 53 28 82 51 33 82 35 98 7z m2949 -39 c159 -25 273 -48 445 -91
141 -34 426 -133 467 -161 39 -27 50 -68 30 -110 -29 -57 -56 -58 -195 -9
-272 96 -446 141 -722 186 -82 14 -165 28 -184 31 -46 7 -81 45 -81 86 0 38 6
48 40 71 31 22 48 21 200 -3z m2099 -111 c48 -27 65 -53 51 -79 -6 -11 -21
-20 -33 -20 -35 0 -107 57 -107 84 0 43 31 48 89 15z m-5405 -65 c9 -8 16 -22
16 -29 0 -20 -80 -85 -104 -85 -64 1 -60 50 8 97 55 38 59 39 80 17z m5751
-199 c46 -42 47 -45 33 -67 -24 -36 -43 -33 -93 13 -48 44 -56 71 -27 88 28
17 37 13 87 -34z m-2530 -24 c377 -56 749 -167 1069 -321 538 -259 1017 -654
1378 -1138 44 -59 89 -120 101 -136 12 -15 24 -32 27 -37 3 -4 22 -15 42 -23
38 -16 84 -64 100 -105 5 -14 11 -52 13 -85 3 -41 14 -80 38 -130 32 -65 57
-120 77 -171 4 -11 17 -41 29 -67 12 -26 21 -52 21 -58 0 -6 4 -18 9 -28 20
-39 53 -131 71 -197 5 -16 20 -70 35 -120 46 -154 91 -382 114 -575 27 -227
33 -460 17 -665 -9 -110 -20 -227 -26 -260 -5 -33 -14 -91 -20 -130 -26 -176
-120 -500 -210 -725 -46 -116 -154 -335 -227 -463 -121 -211 -301 -451 -514
-686 l-64 -71 -62 62 c-35 34 -63 67 -63 73 0 7 12 22 26 36 64 59 254 287
340 409 336 472 542 1005 614 1585 55 447 14 916 -118 1375 -18 64 -25 83 -43
128 -5 13 -9 32 -9 42 0 11 -4 20 -10 20 -5 0 -10 9 -10 19 0 11 -4 23 -10 26
-5 3 -10 14 -10 25 0 10 -9 35 -19 57 -11 21 -23 47 -27 58 -7 19 -8 19 -11
-2 -3 -12 0 -30 5 -39 5 -9 6 -28 1 -43 -4 -14 -12 -42 -18 -62 -6 -19 -11
-49 -11 -66 0 -18 -6 -33 -14 -36 -11 -4 -13 -16 -10 -44 4 -27 3 -34 -4 -24
-8 11 -9 2 -5 -30 3 -24 9 -48 14 -53 5 -6 9 -22 9 -37 0 -15 4 -30 9 -33 5
-3 11 -23 14 -43 3 -21 10 -58 16 -83 14 -62 58 -337 70 -438 8 -66 8 -91 -3
-116 -25 -60 -91 -83 -141 -50 -45 29 -54 63 -71 264 -4 36 -10 69 -15 74 -5
6 -9 29 -9 52 0 27 -6 46 -17 55 -15 13 -16 11 -9 -14 4 -17 1 -38 -8 -55 -7
-15 -17 -47 -21 -72 -4 -25 -12 -51 -17 -57 -6 -7 -11 -25 -13 -40 -1 -16 -10
-45 -19 -67 -9 -21 -16 -49 -16 -62 0 -12 -4 -26 -10 -29 -5 -3 -10 -21 -10
-39 0 -19 -6 -39 -14 -45 -7 -6 -16 -34 -20 -61 -4 -28 -10 -50 -14 -50 -4 0
-13 -30 -20 -67 -7 -37 -20 -75 -28 -84 -9 -10 -18 -36 -21 -58 -3 -23 -10
-44 -14 -47 -5 -3 -9 -18 -9 -34 0 -16 -4 -32 -10 -35 -5 -3 -10 -14 -10 -24
0 -9 -9 -36 -20 -59 -11 -22 -20 -49 -20 -59 0 -10 -14 -56 -31 -103 -16 -47
-34 -101 -39 -120 -5 -19 -18 -54 -30 -77 -11 -23 -20 -50 -20 -61 0 -10 -9
-37 -20 -60 -11 -22 -20 -52 -20 -65 0 -14 -7 -30 -15 -37 -8 -7 -15 -19 -15
-27 0 -17 -47 -160 -60 -185 -6 -10 -10 -24 -10 -31 0 -7 -12 -38 -26 -68 -15
-30 -33 -76 -41 -104 -9 -27 -28 -76 -44 -107 -16 -32 -29 -64 -29 -73 0 -8
-4 -15 -9 -15 -5 0 -15 -17 -21 -37 -7 -21 -18 -45 -25 -53 -7 -8 -16 -26 -20
-39 -4 -14 -11 -29 -16 -35 -16 -19 -59 -87 -59 -92 0 -10 -65 -100 -97 -134
-18 -19 -33 -38 -33 -42 0 -11 -141 -121 -185 -145 -125 -67 -275 -99 -420
-89 -118 8 -172 23 -291 82 -85 42 -112 62 -196 145 -53 53 -109 116 -124 140
-16 24 -34 48 -41 52 -7 4 -13 14 -13 21 0 7 -9 21 -19 30 -11 10 -25 32 -32
49 -7 18 -21 41 -31 51 -10 11 -18 26 -18 33 0 7 -3 13 -7 13 -12 0 -44 61
-37 71 3 5 0 9 -5 9 -6 0 -11 6 -11 14 0 8 -11 28 -25 44 -14 17 -25 39 -25
50 0 11 -7 27 -15 36 -8 8 -15 24 -15 35 0 11 -4 22 -10 26 -5 3 -7 12 -4 19
3 8 -4 16 -17 19 -15 4 -20 11 -15 22 4 12 0 19 -14 22 -11 3 -20 12 -20 20 0
17 -39 96 -52 104 -7 4 -6 9 0 13 13 8 3 48 -12 43 -14 -5 -35 22 -36 46 0 9
-5 17 -11 17 -7 0 -9 10 -5 24 6 23 4 24 -29 19 -26 -4 -35 -2 -35 8 0 8 -7
23 -15 33 -11 15 -17 17 -29 7 -10 -8 -16 -9 -21 -1 -3 5 -22 10 -41 10 -27 0
-41 -7 -60 -29 -33 -40 -89 -122 -97 -143 -4 -12 -12 -15 -23 -11 -14 5 -16 2
-12 -15 4 -12 0 -26 -8 -33 -7 -6 -16 -21 -20 -32 -14 -50 -29 -76 -47 -81
-12 -3 -17 -10 -14 -20 3 -8 -3 -24 -14 -37 -17 -20 -39 -78 -39 -105 0 -7 -7
-14 -15 -18 -8 -3 -15 -12 -15 -19 0 -8 -9 -22 -20 -32 -11 -10 -17 -22 -13
-28 3 -5 0 -15 -8 -21 -8 -6 -27 -37 -42 -69 -16 -31 -34 -63 -40 -70 -7 -7
-20 -26 -29 -42 -36 -64 -126 -181 -198 -257 -108 -115 -182 -165 -340 -231
-56 -24 -205 -40 -297 -33 -103 8 -227 46 -318 99 -76 44 -197 154 -242 221
-15 22 -34 47 -40 54 -7 7 -13 20 -13 28 0 8 -7 17 -15 20 -8 4 -15 14 -15 24
0 9 -8 28 -18 41 -10 13 -26 44 -36 69 -9 25 -28 68 -41 95 -13 28 -33 74 -44
103 -45 113 -64 158 -72 174 -5 10 -9 27 -9 37 0 11 -4 22 -9 25 -4 3 -11 24
-14 46 -3 22 -13 53 -23 68 -10 15 -18 34 -19 42 0 18 -34 129 -46 152 -5 10
-9 27 -9 38 0 11 -4 28 -9 38 -18 35 -31 90 -26 104 4 9 -1 18 -9 21 -10 4
-16 18 -16 37 0 16 -4 30 -10 30 -5 0 -10 12 -10 26 0 14 -7 32 -15 40 -9 10
-13 25 -9 39 3 12 1 26 -5 29 -6 4 -11 20 -11 36 0 16 -4 32 -10 35 -5 3 -10
18 -10 33 0 28 -21 96 -33 108 -4 4 -7 20 -7 35 0 15 -4 31 -10 34 -5 3 -10
19 -10 36 0 16 -4 29 -10 29 -5 0 -10 16 -10 35 0 19 -4 43 -9 53 -17 33 -51
150 -51 175 0 14 -4 29 -10 32 -5 3 -10 19 -10 34 0 15 -12 61 -26 102 -14 41
-29 94 -34 119 -23 117 -32 156 -39 165 -4 6 -15 39 -25 75 -9 36 -24 88 -32
116 -8 28 -14 59 -14 68 0 10 -6 32 -14 49 -15 35 -25 71 -33 130 -3 20 -9 40
-14 43 -5 3 -9 20 -9 39 0 19 -4 37 -10 40 -5 3 -10 15 -10 26 0 11 -7 42 -16
70 -9 27 -14 58 -11 68 4 16 -3 20 -41 25 -75 10 -123 84 -93 144 35 70 51
105 51 114 0 5 10 23 21 40 17 24 19 32 9 38 -15 9 -28 88 -29 175 -1 97 46
181 119 212 43 18 171 43 183 36 5 -3 31 18 58 46 42 44 54 51 86 51 42 -1 67
-16 94 -56 11 -17 28 -28 46 -30 126 -12 153 -18 207 -47 76 -41 115 -91 200
-258 38 -74 73 -135 77 -137 5 -2 9 -14 9 -27 0 -13 5 -27 10 -30 6 -3 10 -15
10 -26 0 -10 3 -19 8 -19 9 0 41 -72 49 -111 3 -16 9 -29 14 -29 5 0 9 -7 9
-16 0 -8 7 -22 15 -30 8 -9 17 -27 21 -42 3 -15 9 -35 15 -44 5 -10 9 -24 9
-32 0 -7 9 -25 20 -39 11 -14 20 -32 20 -41 0 -8 9 -31 20 -51 11 -20 20 -46
20 -59 0 -13 9 -35 20 -49 11 -14 20 -33 20 -44 0 -10 9 -29 20 -43 11 -14 20
-33 20 -42 0 -9 5 -20 11 -24 6 -3 9 -17 6 -31 -3 -17 -1 -23 8 -19 8 3 17
-11 25 -39 7 -24 21 -52 31 -61 11 -9 19 -28 19 -42 0 -14 10 -32 25 -44 14
-11 25 -26 25 -34 0 -8 7 -17 15 -20 8 -4 15 -17 15 -30 0 -13 4 -24 9 -24 5
0 11 -9 14 -20 3 -11 13 -20 24 -20 15 0 15 -2 3 -10 -20 -12 -6 -25 17 -14
10 4 37 6 61 5 25 -2 42 2 42 8 0 6 12 11 26 11 17 0 28 6 31 20 3 11 9 20 14
20 5 0 9 9 9 20 0 12 13 25 35 36 39 18 39 18 25 45 -8 15 -7 19 4 19 9 0 17
15 21 40 4 25 12 40 21 40 8 0 14 6 14 13 0 14 59 140 70 147 13 9 30 48 30
67 0 21 35 99 55 123 7 8 15 32 19 53 4 20 11 37 15 37 5 0 11 13 14 29 3 16
13 36 22 44 8 9 15 24 15 34 0 18 53 129 71 147 5 6 9 16 9 24 0 52 253 488
328 565 43 43 134 102 144 92 2 -2 28 3 58 11 70 20 329 28 425 14 39 -6 103
-20 142 -32 63 -18 81 -29 130 -78 56 -55 73 -81 135 -202 16 -32 33 -58 38
-58 4 0 13 -12 19 -27 6 -16 20 -41 30 -58 11 -16 20 -37 20 -47 1 -9 4 -18 9
-20 10 -4 52 -87 52 -103 0 -7 18 -47 40 -90 22 -43 40 -84 40 -92 0 -8 14
-40 30 -70 17 -30 30 -63 30 -73 0 -10 5 -22 11 -26 6 -3 8 -16 5 -29 -4 -15
-1 -25 9 -29 8 -3 15 -12 15 -21 0 -8 4 -15 8 -15 4 0 14 -21 22 -47 7 -27 19
-52 27 -58 7 -5 14 -29 15 -52 1 -27 6 -43 14 -43 7 0 18 -16 24 -35 6 -19 15
-35 19 -35 3 0 13 -20 20 -45 7 -24 19 -49 27 -56 7 -6 24 -31 36 -56 12 -25
33 -56 45 -69 13 -14 23 -30 23 -37 0 -15 85 -54 119 -55 14 -1 31 8 39 19 8
11 25 24 38 29 13 5 30 25 38 45 8 19 20 35 25 35 6 0 11 7 11 15 0 8 5 15 10
15 6 0 10 8 10 18 0 10 11 29 25 42 14 13 25 29 25 35 0 7 9 20 20 30 11 10
20 26 18 34 -3 21 11 61 21 61 5 0 14 15 21 33 28 72 35 87 43 87 4 0 5 11 1
24 -4 16 1 29 14 42 11 11 23 36 27 57 4 20 11 37 16 37 5 0 9 6 9 13 0 18 24
67 33 67 4 0 7 9 7 19 0 10 6 21 14 24 9 4 12 14 9 26 -3 12 -1 21 6 21 6 0
11 8 11 18 0 22 27 79 41 87 5 4 9 16 9 28 0 12 12 40 25 62 14 22 25 46 25
53 0 8 9 25 20 39 11 14 20 36 20 49 0 13 4 24 8 24 4 0 14 16 21 36 7 19 19
38 27 41 8 3 11 9 8 14 -3 6 -1 15 4 22 5 7 27 44 48 82 47 88 100 161 120
169 13 5 12 11 -7 38 -12 18 -43 58 -69 88 -79 93 -88 127 -45 178 53 63 108
48 201 -54 32 -36 79 -88 104 -114 l45 -48 67 8 c37 4 87 4 110 0 43 -8 61 -5
43 8 -6 4 -17 19 -25 33 -34 60 -171 228 -276 338 -437 460 -1021 804 -1629
960 -303 78 -531 105 -875 105 -287 0 -471 -18 -710 -69 -377 -81 -649 -184
-993 -377 -379 -212 -768 -549 -1023 -889 -67 -89 -234 -333 -234 -343 0 -2
-19 -35 -42 -72 -47 -79 -133 -248 -173 -344 -58 -138 -65 -158 -95 -245 -151
-437 -207 -909 -170 -1405 43 -563 246 -1147 563 -1620 215 -321 551 -667 881
-905 514 -372 1160 -598 1810 -634 109 -6 182 -15 186 -21 4 -6 7 -46 6 -88
l-1 -77 -145 1 c-324 2 -622 55 -1010 177 -179 57 -456 181 -635 284 -126 73
-353 224 -440 293 -297 235 -591 549 -782 835 -220 330 -360 623 -473 995
-107 349 -153 673 -153 1075 0 481 82 893 270 1360 90 222 192 414 336 630
386 580 936 1041 1581 1327 287 127 685 236 1000 272 202 24 203 24 516 21
232 -3 325 -8 435 -24z m-3551 -27 c39 -15 8 -75 -62 -122 -20 -13 -24 -13
-42 3 -29 26 -25 38 25 84 46 42 52 45 79 35z m6381 -225 c46 -42 55 -65 33
-87 -21 -21 -41 -13 -85 30 -44 43 -52 65 -31 86 20 20 36 14 83 -29z m-6677
-71 c20 -20 13 -41 -29 -85 -42 -45 -57 -51 -77 -31 -21 21 -13 51 25 90 38
39 61 46 81 26z m5763 -44 c76 -39 354 -289 518 -464 193 -208 271 -304 278
-342 10 -68 -66 -121 -127 -88 -11 6 -56 56 -102 113 -107 134 -346 372 -528
527 -80 68 -151 134 -158 147 -24 44 21 122 71 123 10 0 31 -7 48 -16z m-2144
-10 c57 -7 83 -30 90 -81 5 -37 2 -45 -26 -73 l-31 -32 -178 7 c-156 6 -372
-3 -477 -21 -16 -2 -64 -7 -105 -10 -94 -6 -119 9 -127 77 -4 38 -1 50 18 72
20 23 39 30 112 43 156 27 566 37 724 18z m3356 -201 c31 -43 29 -68 -6 -79
-17 -5 -30 3 -64 41 -49 53 -52 67 -21 89 28 20 50 7 91 -51z m-2458 0 c190
-76 383 -171 525 -260 83 -52 96 -63 104 -95 13 -50 -6 -92 -51 -113 -41 -20
-47 -18 -168 55 -147 88 -341 181 -504 241 -120 45 -126 49 -141 95 -23 68 28
128 100 120 19 -2 80 -22 135 -43z m-4787 -55 c19 -19 14 -38 -24 -85 -29 -35
-42 -43 -63 -41 -41 5 -39 41 4 94 37 44 61 54 83 32z m2469 -27 c28 -41 28
-47 3 -89 -16 -26 -45 -45 -128 -84 -199 -96 -354 -186 -513 -301 -81 -57
-112 -65 -156 -38 -34 21 -51 69 -39 114 11 47 297 232 547 356 147 73 169 81
214 79 44 -3 52 -7 72 -37z m5018 -227 c38 -51 40 -56 25 -85 -17 -32 -47 -22
-85 27 -37 49 -43 72 -23 92 22 22 47 12 83 -34z m-7743 -81 c25 -23 23 -37
-14 -88 -38 -51 -74 -60 -84 -21 -8 33 2 59 36 95 32 36 37 37 62 14z m7963
-258 c33 -44 42 -87 21 -104 -24 -20 -48 -9 -78 34 -31 46 -36 90 -11 103 23
13 38 6 68 -33z m-8165 -121 c0 -35 -48 -114 -69 -114 -23 0 -41 20 -41 45 0
23 34 84 57 102 23 18 53 -2 53 -33z m-187 -355 c8 -12 4 -31 -12 -73 -21 -50
-26 -56 -52 -56 -38 0 -45 20 -28 73 23 71 66 97 92 56z m7956 -313 c33 -17
61 -71 111 -211 63 -178 112 -346 140 -485 7 -30 15 -71 20 -90 5 -19 13 -69
20 -110 6 -41 15 -99 21 -129 15 -87 12 -107 -22 -140 -39 -39 -85 -42 -122
-7 -26 25 -32 38 -41 111 -33 257 -106 554 -196 795 -54 147 -60 164 -60 190
0 28 24 61 55 78 27 15 41 15 74 -2z m-8109 -72 c11 -12 10 -25 -4 -68 -9 -30
-23 -59 -31 -66 -17 -14 -51 -5 -59 15 -6 17 17 100 34 120 16 19 44 19 60 -1z
m-110 -433 c0 -79 -39 -131 -75 -101 -18 15 -19 50 -5 102 20 71 80 70 80 -1z
m9184 -223 c10 -14 16 -44 16 -84 0 -55 -2 -62 -25 -74 -22 -12 -28 -12 -42 3
-18 18 -43 88 -43 121 0 50 66 74 94 34z m-9264 -199 c0 -63 -13 -89 -45 -89
-33 0 -48 31 -40 82 9 52 38 82 65 68 16 -9 20 -21 20 -61z m1576 7 c38 -38
40 -51 24 -156 -32 -206 -41 -306 -45 -493 -3 -115 -10 -217 -15 -227 -39 -72
-145 -62 -171 17 -14 44 -7 455 11 568 5 39 15 104 21 145 14 97 35 147 68
165 42 23 70 18 107 -19z m-1618 -428 c3 -74 -11 -94 -55 -77 -20 7 -23 16
-23 59 0 67 14 92 48 88 26 -3 27 -6 30 -70z m-14 -354 c19 -19 22 -114 4
-132 -16 -16 -43 -15 -57 2 -6 8 -13 36 -14 63 -3 72 30 105 67 67z m36 -424
c18 -33 17 -119 0 -130 -21 -14 -28 -12 -50 10 -15 15 -20 33 -20 73 0 30 3
57 7 60 14 14 53 6 63 -13z m1665 -306 c16 -11 35 -50 64 -134 67 -195 154
-389 242 -542 45 -76 50 -122 19 -161 -24 -30 -74 -43 -112 -28 -59 22 -233
377 -339 693 -29 87 -31 99 -19 128 26 63 88 82 145 44z m-1587 -147 c16 -65
7 -87 -33 -87 -18 0 -26 8 -33 33 -29 95 -25 120 21 115 29 -3 32 -7 45 -61z
m79 -345 c17 -11 44 -103 37 -125 -4 -13 -14 -17 -37 -15 -27 3 -33 9 -51 59
-17 48 -18 60 -7 73 14 17 38 20 58 8z m160 -427 c13 -23 22 -53 21 -70 -3
-26 -7 -30 -33 -30 -26 0 -33 6 -53 49 -20 40 -22 53 -13 73 17 36 51 27 78
-22z m7764 -194 c19 -19 29 -40 29 -59 0 -51 -194 -339 -368 -547 -133 -159
-320 -352 -352 -363 -37 -13 -91 12 -104 49 -15 44 2 78 78 158 210 220 355
398 467 571 20 30 57 87 82 127 26 40 55 77 65 82 32 19 72 12 103 -18z m825
-46 c7 -28 -31 -112 -58 -129 -23 -14 -52 3 -56 33 -3 21 19 82 41 109 5 6 22
12 38 12 22 0 30 -6 35 -25z m-8411 -145 c29 -58 30 -64 9 -84 -24 -25 -42
-19 -67 22 -46 73 -43 112 9 112 18 0 29 -11 49 -50z m8199 -206 c23 -22 20
-44 -14 -98 -23 -36 -36 -47 -52 -44 -50 7 -49 59 2 121 35 41 42 44 64 21z
m-7991 -158 c33 -53 29 -78 -11 -84 -39 -6 -102 105 -75 132 20 20 58 -1 86
-48z m1172 -205 c210 -205 356 -328 567 -474 112 -77 137 -112 117 -158 -15
-37 -45 -59 -80 -59 -65 0 -441 286 -678 515 -170 165 -211 215 -211 254 0 53
50 96 100 85 14 -3 93 -72 185 -163z m6604 1 c11 -21 -6 -62 -41 -99 -24 -25
-48 -29 -66 -11 -19 19 -14 41 19 86 34 46 71 56 88 24z m-7551 -116 c37 -43
47 -72 32 -91 -21 -25 -46 -17 -84 25 -36 40 -47 84 -23 93 28 12 47 5 75 -27z
m7292 -205 c15 -30 13 -38 -26 -81 -41 -45 -77 -52 -94 -19 -12 22 -10 25 49
92 29 32 56 35 71 8z m-7016 -121 c41 -45 46 -74 15 -91 -40 -21 -123 69 -106
115 11 29 53 18 91 -24z m6734 -201 c2 -20 -8 -35 -43 -68 -38 -35 -48 -40
-65 -31 -33 18 -25 58 18 96 46 41 85 43 90 3z m-1388 -34 c52 -27 66 -83 31
-127 -11 -13 -82 -55 -158 -92 -76 -37 -146 -72 -155 -77 -33 -17 -272 -111
-348 -136 -201 -66 -338 -102 -393 -103 -75 0 -114 79 -64 134 15 17 47 32
102 47 284 76 536 171 779 291 87 43 162 78 168 78 5 0 22 -7 38 -15z m-5054
-59 c48 -48 52 -57 28 -80 -23 -24 -40 -20 -84 20 -43 39 -52 76 -22 93 27 16
32 14 78 -33z m6118 -152 c9 -4 16 -18 16 -34 0 -22 -10 -36 -42 -59 -46 -34
-69 -38 -88 -16 -17 21 -5 46 42 83 42 34 47 36 72 26z m-5800 -111 c49 -38
57 -66 24 -87 -20 -12 -55 4 -100 46 -32 30 -34 40 -12 62 23 23 35 20 88 -21z
m1786 -12 c123 -35 300 -71 500 -102 41 -6 148 -16 236 -23 120 -9 169 -17
188 -29 45 -30 47 -96 3 -138 -21 -20 -28 -21 -167 -14 -80 4 -179 13 -220 20
-41 7 -97 16 -125 20 -169 21 -603 127 -638 156 -32 26 -31 103 2 130 33 27
69 24 221 -20z m3695 -156 c0 -23 -9 -35 -43 -58 -86 -58 -132 0 -49 61 55 41
92 40 92 -3z m-5141 -65 c40 -26 47 -35 44 -58 -4 -39 -48 -42 -96 -6 -57 43
-61 53 -36 78 22 22 33 20 88 -14z m4786 -135 c20 -24 -1 -56 -54 -85 -36 -19
-50 -22 -64 -14 -39 25 -24 62 37 94 44 23 65 25 81 5z m-4425 -70 c52 -31 60
-47 36 -76 l-18 -23 -56 27 c-60 30 -73 48 -57 78 14 26 43 24 95 -6z m4046
-105 c11 -6 19 -21 19 -36 0 -21 -9 -29 -55 -49 -56 -25 -79 -24 -94 4 -13 23
7 47 60 70 54 24 47 23 70 11z m-3676 -65 c51 -22 56 -27 53 -52 -4 -35 -34
-41 -94 -18 -52 20 -70 59 -39 82 23 16 14 17 80 -12z m3300 -120 c0 -36 -38
-58 -100 -59 -36 -1 -40 2 -43 25 -2 14 3 30 10 36 22 18 72 32 103 30 26 -2
30 -6 30 -32z m-2903 -21 c50 -17 64 -35 48 -65 -14 -24 -52 -24 -107 1 -34
15 -43 24 -43 44 0 39 31 45 102 20z m2513 -83 c10 -32 -4 -45 -60 -62 -52
-16 -57 -16 -78 1 -18 15 -20 21 -10 43 12 26 31 33 105 36 28 1 38 -3 43 -18z
m-2068 -33 c17 -14 17 -43 -2 -58 -26 -22 -137 5 -149 36 -3 7 2 21 11 30 13
13 28 15 72 10 30 -4 61 -12 68 -18z m1659 -53 c9 -37 -10 -53 -73 -61 -65 -8
-90 8 -79 49 6 27 23 33 103 36 38 1 43 -2 49 -24z m-1251 -16 c32 -31 10 -53
-57 -57 -76 -4 -112 32 -73 72 21 21 102 11 130 -15z m826 -9 c11 -6 19 -21
19 -35 0 -28 -19 -36 -95 -38 -37 -2 -50 2 -61 18 -19 29 -3 47 48 55 64 11
68 11 89 0z m-405 -15 c10 -25 -4 -62 -25 -68 -11 -2 -40 -2 -66 0 -52 6 -73
30 -55 63 9 17 21 20 76 20 48 0 66 -4 70 -15z"/>
<path d="M12630 22026 c0 -14 5 -28 10 -31 6 -4 10 7 10 24 0 17 -4 31 -10 31
-5 0 -10 -11 -10 -24z"/>
<path d="M9500 20120 c0 -5 5 -10 10 -10 6 0 10 5 10 10 0 6 -4 10 -10 10 -5
0 -10 -4 -10 -10z"/>
<path d="M19350 22120 c0 -17 -7 -20 -44 -20 -25 0 -48 -4 -51 -10 -3 -5 -12
-10 -20 -10 -7 0 -29 -16 -49 -36 -38 -38 -46 -75 -22 -100 17 -16 62 -19 71
-4 4 6 13 5 25 -2 15 -10 22 -10 32 0 15 15 50 16 66 0 10 -10 16 -7 28 10 8
12 23 22 33 22 10 0 32 7 49 16 27 13 32 21 32 50 0 19 5 34 10 34 6 0 10 5
10 11 0 7 -11 8 -30 4 -19 -4 -30 -3 -30 4 0 6 -13 11 -29 11 -20 0 -30 6 -34
20 -3 12 -14 20 -26 20 -14 0 -21 -6 -21 -20z"/>
<path d="M19198 22123 c7 -3 16 -2 19 1 4 3 -2 6 -13 5 -11 0 -14 -3 -6 -6z"/>
<path d="M19530 22030 c0 -5 7 -10 15 -10 8 0 15 5 15 10 0 6 -7 10 -15 10 -8
0 -15 -4 -15 -10z"/>
<path d="M19150 20550 c0 -20 -5 -30 -15 -30 -21 0 -19 -17 8 -70 24 -49 98
-97 150 -99 16 -1 38 -6 49 -12 14 -7 23 -8 30 -1 6 6 31 8 58 5 35 -4 54 -1
71 11 13 9 42 16 66 16 23 0 45 5 48 10 3 6 20 10 36 10 28 0 30 2 27 32 -3
28 -7 33 -41 40 -21 4 -48 15 -60 23 -12 8 -34 15 -49 15 -16 0 -28 5 -28 10
0 6 -13 10 -30 10 -16 0 -30 5 -30 10 0 6 -9 10 -19 10 -11 0 -27 10 -35 22
-12 17 -18 20 -28 10 -14 -14 -78 -16 -78 -2 0 13 -53 13 -67 -1 -8 -8 -13 -8
-17 0 -4 6 -16 11 -27 11 -14 0 -19 -7 -19 -30z"/>
<path d="M19730 20490 c0 -5 7 -10 16 -10 8 0 12 5 9 10 -3 6 -10 10 -16 10
-5 0 -9 -4 -9 -10z"/>
<path d="M19840 20466 c0 -9 5 -16 10 -16 6 0 10 4 10 9 0 6 -4 13 -10 16 -5
3 -10 -1 -10 -9z"/>
<path d="M19870 20460 c0 -5 7 -10 15 -10 8 0 15 5 15 10 0 6 -7 10 -15 10 -8
0 -15 -4 -15 -10z"/>
<path d="M23832 22058 c2 -15 11 -24 26 -26 20 -3 23 0 20 20 -2 15 -11 24
-26 26 -20 3 -23 0 -20 -20z"/>
<path d="M24098 20523 c7 -3 16 -2 19 1 4 3 -2 6 -13 5 -11 0 -14 -3 -6 -6z"/>
<path d="M24170 20340 c0 -5 5 -10 10 -10 6 0 10 5 10 10 0 6 -4 10 -10 10 -5
0 -10 -4 -10 -10z"/>
<path d="M24077 20314 c-8 -8 1 -24 14 -24 5 0 9 7 9 15 0 15 -12 20 -23 9z"/>
<path d="M32717 17190 c-21 -4 -51 -19 -65 -34 l-27 -26 0 -295 0 -295 28 -27
27 -28 236 0 236 0 23 27 c33 39 37 79 33 360 -3 232 -4 248 -24 275 -13 18
-37 32 -65 40 -49 13 -341 15 -402 3z"/>
</g>
</svg>
